<svg xmlns="http://www.w3.org/2000/svg" width="24" height="24" fill="none"><defs><clipPath id="a"><path fill="#fff" fill-opacity="0" d="M0 0h24v24H0z"/></clipPath></defs><path fill="none" d="M0 0h24v24H0z"/><g clip-path="url(#a)"><path fill="#000" d="M12 22.24c5.59 0 10.24-4.64 10.24-10.24 0-5.6-4.64-10.25-10.23-10.25-.54 0-.8.32-.8.84v3.9c0 .43.29.78.73.78.45 0 .75-.35.75-.78v-3c4.42.35 7.83 4.01 7.83 8.51a8.36 8.36 0 0 1-.64 3.27 8.441 8.441 0 0 1-1.84 2.77c-.8.79-1.74 1.42-2.78 1.85-1.03.43-2.14.65-3.26.64-4.75 0-8.55-3.79-8.54-8.53.01-2.11.76-4.03 2.02-5.51.31-.39.33-.86 0-1.22-.34-.36-.9-.33-1.26.13A10.064 10.064 0 0 0 1.75 12c0 5.6 4.64 10.24 10.25 10.24Zm1.6-8.7c.8-.82.64-1.95-.32-2.61L7.97 7.22c-.51-.35-1.03.17-.68.68L11 13.21c.66.95 1.79 1.13 2.6.33Z"/></g></svg>